<?xml version="1.0" encoding="UTF-8" standalone="no"?>
<svg
   xmlns:dc="http://purl.org/dc/elements/1.1/"
   xmlns:cc="http://creativecommons.org/ns#"
   xmlns:rdf="http://www.w3.org/1999/02/22-rdf-syntax-ns#"
   xmlns:svg="http://www.w3.org/2000/svg"
   xmlns="http://www.w3.org/2000/svg"
   xmlns:sodipodi="http://sodipodi.sourceforge.net/DTD/sodipodi-0.dtd"
   xmlns:inkscape="http://www.inkscape.org/namespaces/inkscape"
   width="512"
   height="512"
   viewBox="0 0 512 512"
   version="1.1"
   id="svg8"
   inkscape:version="1.0.2 (e86c870879, 2021-01-15, custom)"
   sodipodi:docname="faceg2.svg"
   inkscape:export-filename="C:\Users\c.mos\Dev\Unity\images\taiso\face\faceg2.png"
   inkscape:export-xdpi="96"
   inkscape:export-ydpi="96">
  <defs
     id="defs2" />
  <sodipodi:namedview
     id="base"
     pagecolor="#c0c0c0"
     bordercolor="#666666"
     borderopacity="1.0"
     inkscape:pageopacity="0"
     inkscape:pageshadow="2"
     inkscape:zoom="1.4142136"
     inkscape:cx="235.01064"
     inkscape:cy="296.59583"
     inkscape:document-units="px"
     inkscape:current-layer="layer1"
     inkscape:document-rotation="0"
     showgrid="true"
     units="px"
     inkscape:window-width="1671"
     inkscape:window-height="1281"
     inkscape:window-x="677"
     inkscape:window-y="27"
     inkscape:window-maximized="0"
     inkscape:snap-grids="true">
    <inkscape:grid
       type="xygrid"
       id="grid833"
       spacingx="8"
       spacingy="8"
       empcolor="#4040ff"
       empopacity="0.32156863"
       color="#4040ff"
       opacity="0.16078431" />
  </sodipodi:namedview>
  <metadata
     id="metadata5">
    <rdf:RDF>
      <cc:Work
         rdf:about="">
        <dc:format>image/svg+xml</dc:format>
        <dc:type
           rdf:resource="http://purl.org/dc/dcmitype/StillImage" />
        <dc:title />
      </cc:Work>
    </rdf:RDF>
  </metadata>
  <g
     inkscape:label="レイヤー 1"
     inkscape:groupmode="layer"
     id="layer1">
    <circle
       style="fill:#000000;stroke-width:14;stroke-linecap:round;stroke-linejoin:round"
       id="path831"
       cx="68"
       cy="132"
       r="14" />
    <circle
       style="fill:#000000;stroke-width:14;stroke-linecap:round;stroke-linejoin:round"
       id="path833"
       cx="188"
       cy="132"
       r="14" />
    <path
       style="fill:none;stroke:#000000;stroke-width:8;stroke-linecap:round;stroke-linejoin:round;stroke-opacity:1"
       id="path835"
       sodipodi:type="arc"
       sodipodi:cx="128"
       sodipodi:cy="161.64616"
       sodipodi:rx="72"
       sodipodi:ry="72"
       sodipodi:start="1.2217305"
       sodipodi:end="1.9198622"
       sodipodi:arc-type="arc"
       d="m 152.62545,229.30403 a 72,72 0 0 1 -49.2509,0"
       sodipodi:open="true" />
    <path
       style="fill:none;stroke:#000000;stroke-width:4;stroke-linecap:round;stroke-linejoin:round;stroke-miterlimit:4;stroke-dasharray:none;stroke-opacity:1"
       id="path849"
       sodipodi:type="arc"
       sodipodi:cx="64"
       sodipodi:cy="107.99759"
       sodipodi:rx="32"
       sodipodi:ry="32"
       sodipodi:start="3.9269908"
       sodipodi:end="4.9741884"
       sodipodi:arc-type="arc"
       d="M 41.372583,85.370172 A 32,32 0 0 1 72.28221,77.087963"
       sodipodi:open="true" />
    <path
       style="fill:none;stroke:#000000;stroke-width:4;stroke-linecap:round;stroke-linejoin:round;stroke-miterlimit:4;stroke-dasharray:none;stroke-opacity:1"
       id="path849-4"
       sodipodi:type="arc"
       sodipodi:cx="192"
       sodipodi:cy="107.99759"
       sodipodi:rx="32"
       sodipodi:ry="32"
       sodipodi:start="4.4505896"
       sodipodi:end="5.4977871"
       sodipodi:arc-type="arc"
       sodipodi:open="true"
       d="m 183.71779,77.087963 a 32,32 0 0 1 30.90963,8.282208" />
    <path
       style="fill:none;stroke:#000000;stroke-width:4;stroke-linecap:butt;stroke-linejoin:round;stroke-miterlimit:4;stroke-dasharray:none;stroke-opacity:1;paint-order:normal"
       d="m 68.267949,133 -12,-20.78461"
       id="path887" />
    <path
       style="fill:none;stroke:#000000;stroke-width:4;stroke-linecap:butt;stroke-linejoin:round;stroke-miterlimit:4;stroke-dasharray:none;stroke-opacity:1;paint-order:normal"
       d="m 68.267949,133 -12,-20.78461"
       id="path891" />
    <path
       style="fill:none;stroke:#000000;stroke-width:4;stroke-linecap:butt;stroke-linejoin:round;stroke-miterlimit:4;stroke-dasharray:none;stroke-opacity:1;paint-order:normal"
       d="M 68,134 47.21539,122"
       id="path844" />
    <path
       style="fill:#000000;stroke:#000000;stroke-width:4;stroke-linejoin:round"
       d="m 187.73205,133 12,-20.78461"
       id="path850" />
    <path
       style="fill:#000000;stroke:#000000;stroke-width:4;stroke-linejoin:round"
       d="m 188,134 20.78461,-12"
       id="path852" />
    <circle
       style="fill:#000000;stroke-width:14;stroke-linecap:round;stroke-linejoin:round"
       id="path831-4"
       cx="324"
       cy="388"
       r="14" />
    <circle
       style="fill:#000000;stroke-width:14;stroke-linecap:round;stroke-linejoin:round"
       id="path833-9"
       cx="444"
       cy="388"
       r="14" />
    <path
       style="fill:none;stroke:#000000;stroke-width:8;stroke-linecap:round;stroke-linejoin:round;stroke-opacity:1"
       id="path835-6"
       sodipodi:type="arc"
       sodipodi:cx="384"
       sodipodi:cy="-557.30383"
       sodipodi:rx="72"
       sodipodi:ry="72"
       sodipodi:start="1.2217305"
       sodipodi:end="1.9198622"
       sodipodi:arc-type="arc"
       sodipodi:open="true"
       d="m 408.62545,-489.64596 a 72,72 0 0 1 -49.2509,0"
       transform="scale(1,-1)" />
    <path
       style="fill:none;stroke:#000000;stroke-width:4;stroke-linecap:round;stroke-linejoin:round;stroke-miterlimit:4;stroke-dasharray:none;stroke-opacity:1"
       id="path849-9"
       sodipodi:type="arc"
       sodipodi:cx="320"
       sodipodi:cy="363.99759"
       sodipodi:rx="32"
       sodipodi:ry="32"
       sodipodi:start="3.6651914"
       sodipodi:end="4.712389"
       sodipodi:arc-type="arc"
       sodipodi:open="true"
       d="m 292.28719,347.99759 a 32,32 0 0 1 27.71281,-16" />
    <path
       style="fill:none;stroke:#000000;stroke-width:4;stroke-linecap:round;stroke-linejoin:round;stroke-miterlimit:4;stroke-dasharray:none;stroke-opacity:1"
       id="path849-4-2"
       sodipodi:type="arc"
       sodipodi:cx="448"
       sodipodi:cy="363.99759"
       sodipodi:rx="32"
       sodipodi:ry="32"
       sodipodi:start="4.712389"
       sodipodi:end="5.7595865"
       sodipodi:arc-type="arc"
       sodipodi:open="true"
       d="m 448,331.99759 a 32,32 0 0 1 27.71281,16" />
    <path
       style="fill:none;stroke:#000000;stroke-width:4;stroke-linecap:butt;stroke-linejoin:round;stroke-miterlimit:4;stroke-dasharray:none;stroke-opacity:1;paint-order:normal"
       d="m 324.26795,389 -12,-20.78461"
       id="path887-7" />
    <path
       style="fill:none;stroke:#000000;stroke-width:4;stroke-linecap:butt;stroke-linejoin:round;stroke-miterlimit:4;stroke-dasharray:none;stroke-opacity:1;paint-order:normal"
       d="m 324.26795,389 -12,-20.78461"
       id="path891-5" />
    <path
       style="fill:none;stroke:#000000;stroke-width:4;stroke-linecap:butt;stroke-linejoin:round;stroke-miterlimit:4;stroke-dasharray:none;stroke-opacity:1;paint-order:normal"
       d="M 324,390 303.21539,378"
       id="path844-4" />
    <path
       style="fill:#000000;stroke:#000000;stroke-width:4;stroke-linejoin:round"
       d="m 443.73205,389 12,-20.78461"
       id="path850-4" />
    <path
       style="fill:#000000;stroke:#000000;stroke-width:4;stroke-linejoin:round"
       d="m 444,390 20.78461,-12"
       id="path852-8" />
    <g
       transform="matrix(0.00174859,0,0,-0.00265781,315.33402,435.01)"
       fill="#000000"
       stroke="none"
       id="g847"
       style="fill:#80ffff;fill-opacity:1;stroke-width:61.8489">
      <path
         d="m 4890,12357 c -35,-34 -52,-48 -37,-31 32,36 33,40 6,40 -40,0 -568,-573 -1115,-1211 C 1786,8873 611,6917 414,5610 369,5315 370,4882 416,4520 593,3121 1338,1899 2481,1133 3219,638 4066,380 4955,380 c 962,0 1862,298 2655,879 760,557 1373,1405 1671,2316 232,707 309,1483 204,2045 -131,697 -488,1511 -1093,2490 -177,287 -645,981 -754,1120 l -20,25 21,3 c 12,2 21,5 21,8 0,7 -243,335 -399,539 -296,387 -564,722 -860,1075 -534,635 -1289,1474 -1330,1476 -10,1 -23,4 -30,8 -20,13 -12,-7 16,-38 15,-17 -2,-3 -37,31 l -65,63 z"
         id="path845"
         style="fill:#80ffff;fill-opacity:1;stroke-width:61.8489" />
    </g>
  </g>
</svg>
