<?xml version="1.0" encoding="UTF-8" standalone="no"?>
<svg
   xmlns:dc="http://purl.org/dc/elements/1.1/"
   xmlns:cc="http://creativecommons.org/ns#"
   xmlns:rdf="http://www.w3.org/1999/02/22-rdf-syntax-ns#"
   xmlns:svg="http://www.w3.org/2000/svg"
   xmlns="http://www.w3.org/2000/svg"
   xmlns:sodipodi="http://sodipodi.sourceforge.net/DTD/sodipodi-0.dtd"
   xmlns:inkscape="http://www.inkscape.org/namespaces/inkscape"
   inkscape:export-ydpi="96"
   inkscape:export-xdpi="96"
   inkscape:export-filename="C:\Users\c.mos\Dev\Unity\images\taiso\face\faceb3.png"
   sodipodi:docname="faceb3.svg"
   inkscape:version="1.0.2 (e86c870879, 2021-01-15, custom)"
   id="svg8"
   version="1.1"
   viewBox="0 0 512 512"
   height="512"
   width="512">
  <defs
     id="defs2" />
  <sodipodi:namedview
     id="base"
     pagecolor="#c0c0c0"
     bordercolor="#666666"
     borderopacity="1.0"
     inkscape:pageopacity="0"
     inkscape:pageshadow="2"
     inkscape:zoom="1.4142136"
     inkscape:cx="289.35775"
     inkscape:cy="254.16765"
     inkscape:document-units="px"
     inkscape:current-layer="layer1"
     inkscape:document-rotation="0"
     showgrid="true"
     units="px"
     inkscape:window-width="1671"
     inkscape:window-height="1281"
     inkscape:window-x="256"
     inkscape:window-y="2"
     inkscape:window-maximized="0">
    <inkscape:grid
       type="xygrid"
       id="grid833"
       spacingx="8"
       spacingy="8"
       empcolor="#4040ff"
       empopacity="0.32156863"
       color="#4040ff"
       opacity="0.16078431" />
  </sodipodi:namedview>
  <metadata
     id="metadata5">
    <rdf:RDF>
      <cc:Work
         rdf:about="">
        <dc:format>image/svg+xml</dc:format>
        <dc:type
           rdf:resource="http://purl.org/dc/dcmitype/StillImage" />
        <dc:title />
      </cc:Work>
    </rdf:RDF>
  </metadata>
  <g
     inkscape:label="レイヤー 1"
     inkscape:groupmode="layer"
     id="layer1">
    <circle
       style="fill:#000000;stroke-width:12;stroke-linecap:round;stroke-linejoin:round"
       id="path831"
       cx="69"
       cy="131"
       r="11" />
    <circle
       style="fill:#000000;stroke-width:12;stroke-linecap:round;stroke-linejoin:round"
       id="path833"
       cx="187"
       cy="131"
       r="11" />
    <path
       style="fill:none;stroke:#000000;stroke-width:8;stroke-linecap:round;stroke-linejoin:round;stroke-opacity:1"
       id="path835"
       sodipodi:type="arc"
       sodipodi:cx="128.08325"
       sodipodi:cy="132.58978"
       sodipodi:rx="72"
       sodipodi:ry="105.64616"
       sodipodi:start="0.78539816"
       sodipodi:end="2.3561945"
       sodipodi:arc-type="arc"
       d="M 178.99494,207.2929 A 72,105.64616 0 0 1 128.08325,238.23594 72,105.64616 0 0 1 77.171563,207.2929"
       sodipodi:open="true" />
    <path
       style="fill:none;stroke:#000000;stroke-width:10;stroke-linecap:round;stroke-linejoin:round;stroke-miterlimit:4;stroke-dasharray:none;stroke-opacity:1"
       id="path849"
       sodipodi:type="arc"
       sodipodi:cx="64"
       sodipodi:cy="107.99759"
       sodipodi:rx="32"
       sodipodi:ry="32"
       sodipodi:start="3.9269908"
       sodipodi:end="5.7595865"
       sodipodi:arc-type="arc"
       d="M 41.372583,85.370172 A 32,32 0 0 1 68.176837,76.271353 32,32 0 0 1 91.712812,91.997588"
       sodipodi:open="true" />
    <path
       style="fill:none;stroke:#000000;stroke-width:10;stroke-linecap:round;stroke-linejoin:round;stroke-miterlimit:4;stroke-dasharray:none;stroke-opacity:1"
       id="path849-4"
       sodipodi:type="arc"
       sodipodi:cx="192"
       sodipodi:cy="107.99759"
       sodipodi:rx="32"
       sodipodi:ry="32"
       sodipodi:start="3.6651914"
       sodipodi:end="5.4977871"
       sodipodi:arc-type="arc"
       sodipodi:open="true"
       d="m 164.28719,91.99759 a 32,32 0 0 1 23.53597,-15.726236 32,32 0 0 1 26.80426,9.098817" />
    <circle
       style="fill:none;stroke:#000000;stroke-width:4;stroke-linecap:round;stroke-linejoin:round;stroke-miterlimit:4;stroke-dasharray:none"
       id="path1445"
       sodipodi:type="arc"
       sodipodi:cx="65.320511"
       sodipodi:cy="130"
       sodipodi:rx="20"
       sodipodi:ry="20"
       sodipodi:start="3.6651914"
       sodipodi:end="6.0213859"
       sodipodi:open="true"
       sodipodi:arc-type="arc"
       d="m 48.000002,120 a 20,20 0 0 1 19.931032,-9.8289 20,20 0 0 1 16.707993,14.65252" />
    <circle
       style="fill:none;stroke:#000000;stroke-width:4;stroke-linecap:round;stroke-linejoin:round;stroke-miterlimit:4;stroke-dasharray:none"
       id="circle1447"
       sodipodi:type="arc"
       sodipodi:cx="-190.67949"
       sodipodi:cy="130"
       sodipodi:rx="20"
       sodipodi:ry="20"
       sodipodi:start="3.6651914"
       sodipodi:end="6.0213859"
       sodipodi:open="true"
       sodipodi:arc-type="arc"
       d="m -208,120 a 20,20 0 0 1 19.93103,-9.8289 20,20 0 0 1 16.708,14.65252"
       transform="scale(-1,1)" />
    <path
       style="fill:none;stroke:#000000;stroke-width:10;stroke-linecap:round;stroke-linejoin:round;stroke-miterlimit:4;stroke-dasharray:none;stroke-opacity:1"
       id="path849-9"
       sodipodi:type="arc"
       sodipodi:cx="320"
       sodipodi:cy="363.99759"
       sodipodi:rx="32"
       sodipodi:ry="32"
       sodipodi:start="3.6651914"
       sodipodi:end="5.7595865"
       sodipodi:arc-type="arc"
       d="m 292.28719,347.99759 a 32,32 0 0 1 27.71281,-16 32,32 0 0 1 27.71281,16"
       sodipodi:open="true" />
    <path
       style="fill:none;stroke:#000000;stroke-width:10;stroke-linecap:round;stroke-linejoin:round;stroke-miterlimit:4;stroke-dasharray:none;stroke-opacity:1"
       id="path849-4-9"
       sodipodi:type="arc"
       sodipodi:cx="448"
       sodipodi:cy="363.99759"
       sodipodi:rx="32"
       sodipodi:ry="32"
       sodipodi:start="3.6651914"
       sodipodi:end="5.7595865"
       sodipodi:arc-type="arc"
       sodipodi:open="true"
       d="m 420.28719,347.99759 a 32,32 0 0 1 27.71281,-16 32,32 0 0 1 27.71281,16" />
    <path
       style="fill:none;stroke:#000000;stroke-width:8;stroke-linecap:round;stroke-linejoin:round;stroke-miterlimit:4;stroke-dasharray:none"
       d="m 329,480 c 5.286,-4.33255 10.571,-8.42858 15.857,-9.28981 5.286,-0.86124 10.572,1.61863 15.857,5.60998 5.286,3.99136 10.572,9.07059 15.857,11.51255 5.286,2.44195 10.572,1.97384 15.858,-1.05079 5.285,-3.02381 10.571,-8.28765 15.857,-11.92792 5.285,-3.64027 10.571,-5.25725 15.857,-3.67488 5.286,1.58319 10.571,6.20667 15.857,10.47329"
       title="sin(x)"
       id="path4606" />
    <path
       sodipodi:type="spiral"
       style="fill:none;fill-rule:evenodd;stroke:#000000;stroke-width:4;stroke-linecap:round;stroke-linejoin:round;stroke-miterlimit:4;stroke-dasharray:none"
       id="path2999"
       sodipodi:cx="440.76086"
       sodipodi:cy="389.16037"
       sodipodi:expansion="1"
       sodipodi:revolution="1.9051334"
       sodipodi:radius="23.486334"
       sodipodi:argument="-12.232105"
       sodipodi:t0="0.1251706"
       d="m 439.99999,392 c -2.72111,0.92207 -4.92659,-1.97237 -5.05572,-4.39818 -0.23433,-4.4023 4.09075,-7.43734 8.17282,-7.23501 6.02697,0.29874 10.0004,6.23015 9.41429,11.94746 -0.78381,7.64591 -8.37566,12.58387 -15.72209,11.59358 -9.26453,-1.24884 -15.17749,-10.52377 -13.77287,-19.49673 1.7037,-10.88359 12.67326,-17.77691 23.27137,-15.95216 7.88537,1.35767 14.44761,7.13662 17.13913,14.6227" />
    <path
       sodipodi:type="spiral"
       style="fill:none;fill-rule:evenodd;stroke:#000000;stroke-width:4;stroke-linecap:round;stroke-linejoin:round;stroke-miterlimit:4;stroke-dasharray:none"
       id="path3012"
       sodipodi:cx="-327.23904"
       sodipodi:cy="389.16037"
       sodipodi:expansion="1"
       sodipodi:revolution="1.9051334"
       sodipodi:radius="23.486334"
       sodipodi:argument="-12.232105"
       sodipodi:t0="0.1251706"
       d="m -327.99992,392 c -2.72111,0.92207 -4.92659,-1.97237 -5.05572,-4.39818 -0.23433,-4.4023 4.09075,-7.43734 8.17282,-7.23501 6.02697,0.29874 10.0004,6.23015 9.4143,11.94746 -0.78382,7.64591 -8.37567,12.58387 -15.7221,11.59358 -9.26453,-1.24884 -15.17749,-10.52377 -13.77287,-19.49673 1.7037,-10.88359 12.67326,-17.77691 23.27137,-15.95216 7.88537,1.35767 14.44761,7.13662 17.13913,14.6227"
       transform="scale(-1,1)" />
  </g>
</svg>
