<?xml version="1.0" encoding="UTF-8" standalone="no"?>
<svg
   xmlns:dc="http://purl.org/dc/elements/1.1/"
   xmlns:cc="http://creativecommons.org/ns#"
   xmlns:rdf="http://www.w3.org/1999/02/22-rdf-syntax-ns#"
   xmlns:svg="http://www.w3.org/2000/svg"
   xmlns="http://www.w3.org/2000/svg"
   xmlns:sodipodi="http://sodipodi.sourceforge.net/DTD/sodipodi-0.dtd"
   xmlns:inkscape="http://www.inkscape.org/namespaces/inkscape"
   width="512"
   height="512"
   viewBox="0 0 512 512"
   version="1.1"
   id="svg8"
   inkscape:version="1.0.2 (e86c870879, 2021-01-15, custom)"
   sodipodi:docname="faceg3.svg"
   inkscape:export-filename="C:\Users\c.mos\Dev\Unity\images\taiso\face\faceg3.png"
   inkscape:export-xdpi="96"
   inkscape:export-ydpi="96">
  <defs
     id="defs2" />
  <sodipodi:namedview
     id="base"
     pagecolor="#c0c0c0"
     bordercolor="#666666"
     borderopacity="1.0"
     inkscape:pageopacity="0"
     inkscape:pageshadow="2"
     inkscape:zoom="1.4142136"
     inkscape:cx="270.0333"
     inkscape:cy="403.47793"
     inkscape:document-units="px"
     inkscape:current-layer="layer1"
     inkscape:document-rotation="0"
     showgrid="true"
     units="px"
     inkscape:window-width="1671"
     inkscape:window-height="1281"
     inkscape:window-x="719"
     inkscape:window-y="-11"
     inkscape:window-maximized="0">
    <inkscape:grid
       type="xygrid"
       id="grid833"
       spacingx="8"
       spacingy="8"
       empcolor="#4040ff"
       empopacity="0.32156863"
       color="#4040ff"
       opacity="0.16078431" />
  </sodipodi:namedview>
  <metadata
     id="metadata5">
    <rdf:RDF>
      <cc:Work
         rdf:about="">
        <dc:format>image/svg+xml</dc:format>
        <dc:type
           rdf:resource="http://purl.org/dc/dcmitype/StillImage" />
        <dc:title />
      </cc:Work>
    </rdf:RDF>
  </metadata>
  <g
     inkscape:label="レイヤー 1"
     inkscape:groupmode="layer"
     id="layer1">
    <circle
       style="fill:#000000;stroke-width:12;stroke-linecap:round;stroke-linejoin:round"
       id="path831"
       cx="69"
       cy="131"
       r="11" />
    <circle
       style="fill:#000000;stroke-width:12;stroke-linecap:round;stroke-linejoin:round"
       id="path833"
       cx="187"
       cy="131"
       r="11" />
    <path
       style="fill:none;stroke:#000000;stroke-width:8;stroke-linecap:round;stroke-linejoin:round;stroke-opacity:1"
       id="path835"
       sodipodi:type="arc"
       sodipodi:cx="128.08325"
       sodipodi:cy="132.58978"
       sodipodi:rx="72"
       sodipodi:ry="105.64616"
       sodipodi:start="0.78539816"
       sodipodi:end="2.3561945"
       sodipodi:arc-type="arc"
       d="M 178.99494,207.2929 A 72,105.64616 0 0 1 128.08325,238.23594 72,105.64616 0 0 1 77.171563,207.2929"
       sodipodi:open="true" />
    <path
       style="fill:none;stroke:#000000;stroke-width:8;stroke-linecap:round;stroke-linejoin:round;stroke-opacity:1"
       id="path849"
       sodipodi:type="arc"
       sodipodi:cx="64"
       sodipodi:cy="107.99759"
       sodipodi:rx="32"
       sodipodi:ry="32"
       sodipodi:start="3.9269908"
       sodipodi:end="5.4977871"
       sodipodi:arc-type="arc"
       d="m 41.372583,85.370172 a 32,32 0 0 1 45.254833,-10e-7"
       sodipodi:open="true" />
    <path
       style="fill:none;stroke:#000000;stroke-width:8;stroke-linecap:round;stroke-linejoin:round;stroke-opacity:1"
       id="path849-4"
       sodipodi:type="arc"
       sodipodi:cx="192"
       sodipodi:cy="107.99759"
       sodipodi:rx="32"
       sodipodi:ry="32"
       sodipodi:start="3.9269908"
       sodipodi:end="5.4977871"
       sodipodi:arc-type="arc"
       sodipodi:open="true"
       d="m 169.37258,85.370172 a 32,32 0 0 1 45.25484,-10e-7" />
    <circle
       style="fill:none;stroke:#000000;stroke-width:4;stroke-linecap:round;stroke-linejoin:round;stroke-miterlimit:4;stroke-dasharray:none"
       id="path1445"
       sodipodi:type="arc"
       sodipodi:cx="58.720509"
       sodipodi:cy="132.1411"
       sodipodi:rx="20"
       sodipodi:ry="20"
       sodipodi:start="3.6651914"
       sodipodi:end="6.0213859"
       sodipodi:open="true"
       sodipodi:arc-type="arc"
       d="m 41.4,122.1411 a 20,20 0 0 1 19.931032,-9.8289 20,20 0 0 1 16.707993,14.65252" />
    <circle
       style="fill:none;stroke:#000000;stroke-width:4;stroke-linecap:round;stroke-linejoin:round;stroke-miterlimit:4;stroke-dasharray:none"
       id="circle1447"
       sodipodi:type="arc"
       sodipodi:cx="-197.31851"
       sodipodi:cy="132.1411"
       sodipodi:rx="20"
       sodipodi:ry="20"
       sodipodi:start="3.6651914"
       sodipodi:end="6.0213859"
       sodipodi:open="true"
       sodipodi:arc-type="arc"
       d="m -214.63902,122.1411 a 20,20 0 0 1 19.93103,-9.8289 A 20,20 0 0 1 -178,126.96472"
       transform="scale(-1,1)" />
    <path
       style="fill:none;stroke:#000000;stroke-width:8;stroke-linecap:round;stroke-linejoin:round;stroke-miterlimit:4;stroke-dasharray:none"
       d="m 329,480 c 5.286,-4.33255 10.571,-8.42858 15.857,-9.28981 5.286,-0.86124 10.572,1.61863 15.857,5.60998 5.286,3.99136 10.572,9.07059 15.857,11.51255 5.286,2.44195 10.572,1.97384 15.858,-1.05079 5.285,-3.02381 10.571,-8.28765 15.857,-11.92792 5.285,-3.64027 10.571,-5.25725 15.857,-3.67488 5.286,1.58319 10.571,6.20667 15.857,10.47329"
       title="sin(x)"
       id="path4606" />
    <path
       style="fill:none;stroke:#000000;stroke-width:8;stroke-linecap:round;stroke-linejoin:round;stroke-opacity:1"
       id="path849-2"
       sodipodi:type="arc"
       sodipodi:cx="320"
       sodipodi:cy="363.99976"
       sodipodi:rx="32"
       sodipodi:ry="32"
       sodipodi:start="3.6651914"
       sodipodi:end="5.2359878"
       sodipodi:arc-type="arc"
       sodipodi:open="true"
       d="M 292.28719,347.99976 A 32,32 0 0 1 311.71779,333.09013 32,32 0 0 1 336,336.28694" />
    <path
       style="fill:none;stroke:#000000;stroke-width:8;stroke-linecap:round;stroke-linejoin:round;stroke-opacity:1"
       id="path849-4-8"
       sodipodi:type="arc"
       sodipodi:cx="448"
       sodipodi:cy="363.98654"
       sodipodi:rx="32"
       sodipodi:ry="32"
       sodipodi:start="4.1887902"
       sodipodi:end="5.7595865"
       sodipodi:arc-type="arc"
       sodipodi:open="true"
       d="m 432,336.27373 a 32,32 0 0 1 43.71281,11.71281" />
    <circle
       style="fill:none;stroke:#000000;stroke-width:4;stroke-linecap:round;stroke-linejoin:round;stroke-miterlimit:4;stroke-dasharray:none"
       id="path1445-2"
       sodipodi:type="arc"
       sodipodi:cx="314.72052"
       sodipodi:cy="388.14111"
       sodipodi:rx="20"
       sodipodi:ry="20"
       sodipodi:start="3.6651914"
       sodipodi:end="6.0213859"
       sodipodi:open="true"
       sodipodi:arc-type="arc"
       d="m 297.40001,378.14111 a 20,20 0 0 1 19.93103,-9.82889 20,20 0 0 1 16.708,14.65251" />
    <circle
       style="fill:none;stroke:#000000;stroke-width:4;stroke-linecap:round;stroke-linejoin:round;stroke-miterlimit:4;stroke-dasharray:none"
       id="circle1447-6"
       sodipodi:type="arc"
       sodipodi:cx="-453.31851"
       sodipodi:cy="388.14111"
       sodipodi:rx="20"
       sodipodi:ry="20"
       sodipodi:start="3.6651914"
       sodipodi:end="6.0213859"
       sodipodi:open="true"
       sodipodi:arc-type="arc"
       transform="scale(-1,1)"
       d="m -470.63902,378.14111 a 20,20 0 0 1 19.93103,-9.82889 A 20,20 0 0 1 -434,382.96473" />
    <path
       sodipodi:type="spiral"
       style="fill:none;fill-rule:evenodd;stroke:#000000;stroke-width:4;stroke-linecap:round;stroke-linejoin:round;stroke-miterlimit:4;stroke-dasharray:none"
       id="path4485"
       sodipodi:cx="384"
       sodipodi:cy="256"
       sodipodi:expansion="1"
       sodipodi:revolution="1.90513"
       sodipodi:radius="11.313708"
       sodipodi:argument="-11.184887"
       sodipodi:t0="0.25307041"
       d="m 383.14956,253.26605 c 1.71198,-1.22329 4.0412,-0.2527 5.00202,1.44252 1.42344,2.51146 0.0407,5.63506 -2.41917,6.86064 -3.2958,1.64208 -7.23901,-0.16856 -8.71925,-3.39582 -1.86896,-4.07473 0.37621,-8.84784 4.37247,-10.57787 4.85118,-2.10013 10.45942,0.58294 12.43648,5.34913 C 395.3552,256.64055 394.56717,260.9648 392,264"
       transform="rotate(170.93687,409.07599,323.47713)" />
    <path
       sodipodi:type="spiral"
       style="fill:none;fill-rule:evenodd;stroke:#000000;stroke-width:4;stroke-linecap:round;stroke-linejoin:round;stroke-miterlimit:4;stroke-dasharray:none"
       id="path4487"
       sodipodi:cx="384"
       sodipodi:cy="256"
       sodipodi:expansion="1"
       sodipodi:revolution="1.90513"
       sodipodi:radius="11.313708"
       sodipodi:argument="-11.184887"
       sodipodi:t0="0.25307041"
       d="m 383.14956,253.26605 c 1.71198,-1.22329 4.0412,-0.2527 5.00202,1.44252 1.42344,2.51146 0.0407,5.63506 -2.41917,6.86064 -3.2958,1.64208 -7.23901,-0.16856 -8.71925,-3.39582 -1.86896,-4.07473 0.37621,-8.84784 4.37247,-10.57787 4.85118,-2.10013 10.45942,0.58294 12.43648,5.34913 C 395.3552,256.64055 394.56717,260.9648 392,264"
       transform="matrix(0.98751538,0.15752263,0.15752263,-0.98751538,-95.999928,578.47719)" />
  </g>
</svg>
